<svg width="141" height="154" viewBox="0 0 141 154" fill="none" xmlns="http://www.w3.org/2000/svg">
<path d="M39.7025 11.0762C20.2347 29.8562 34.0832 45.4679 43.441 50.9263L124.883 56.7991C131.611 36.715 108.776 22.66 103.135 19.5796C61.0177 -3.42023 46.9319 4.8146 39.7025 11.0762Z" fill="#EEEEEE" stroke="black" stroke-width="5"/>
<path d="M39.4886 142.737C20.0208 123.957 33.8694 108.345 43.2271 102.887L124.669 97.014C131.397 117.098 108.562 131.153 102.921 134.233C60.8038 157.233 46.7181 148.998 39.4886 142.737Z" fill="#EEEEEE" stroke="black" stroke-width="5"/>
<rect x="19.5" y="29.5" width="118" height="95" rx="47.5" fill="#F3E366" stroke="black" stroke-width="7"/>
<path d="M57 31H101.5C101.5 31 95.6694 59.2353 95.5 78C95.3375 96.0015 103.5 123 103.5 123H57C57 123 50.1151 95.7846 50 78C49.88 59.4433 57 31 57 31Z" fill="black"/>
<path d="M0.292546 77.0462C0.292546 77.0462 5.65636 74.166 9.33029 72.8462C12.6776 71.6437 18.1442 70.4713 18.1442 70.4713L18 84C18 84 12.0873 82.6401 9.23873 81.438C6.39013 80.2359 0.292546 77.0462 0.292546 77.0462Z" fill="black"/>
</svg>
